<svg xmlns="http://www.w3.org/2000/svg" viewBox="0 0 32 32">
  <rect width="32" height="32" rx="6" fill="#0a0a0f"/>
  <path d="M16 4 C10 4 6 8 6 14 C6 18 8 21 11 23 L11 28 L14 25 L16 28 L18 25 L21 28 L21 23 C24 21 26 18 26 14 C26 8 22 4 16 4Z" fill="none" stroke="#d4a418" stroke-width="1.5"/>
  <circle cx="12" cy="13" r="1.5" fill="#d4a418"/>
  <circle cx="20" cy="13" r="1.5" fill="#d4a418"/>
  <path d="M10 6 C10 6 12 2 12 1" stroke="#d4a418" stroke-width="1.5" stroke-linecap="round" fill="none"/>
  <path d="M22 6 C22 6 20 2 20 1" stroke="#d4a418" stroke-width="1.5" stroke-linecap="round" fill="none"/>
</svg>
